<?xml version="1.0" encoding="utf-8"?>
<svg viewBox="50 50.643 180.63 51.971" xmlns="http://www.w3.org/2000/svg" xmlns:bx="https://boxy-svg.com">
  <g transform="matrix(1.515957, 0, 0, 1.624081, -132.477709, -197.11478)" style="" bx:origin="0 0">
    <path d="M 134.231 152.758 C 127.735 151.587 121.765 155.539 120.639 161.795 C 120.226 163.991 120.414 166.222 120.414 168.454 C 120.376 173.284 120.414 178.114 120.414 182.98 C 120.414 183.894 120.677 184.516 121.765 184.553 C 122.854 184.553 123.154 183.894 123.154 183.016 C 123.154 182.797 123.117 182.504 123.117 182.285 C 123.117 178.736 123.117 175.186 123.117 171.674 C 123.267 171.601 123.38 171.528 123.529 171.455 C 123.755 171.747 123.905 172.077 124.131 172.296 C 127.585 175.516 131.64 176.248 136.071 174.784 C 140.388 173.394 142.829 170.32 143.655 165.966 C 144.894 159.783 140.689 153.965 134.231 152.758 Z M 132.053 172.991 C 126.721 172.881 123.004 169.076 123.117 163.808 C 123.192 158.758 127.135 154.953 132.203 155.063 C 137.31 155.136 141.214 159.124 141.139 164.21 C 141.065 169.186 137.009 173.138 132.053 172.991 Z" fill="white"/>
    <path d="M 132.316 169.918 C 129.951 169.881 127.998 169.113 126.533 167.32 C 126.27 166.991 125.82 166.515 126.308 166.186 C 126.759 165.857 126.909 166.515 127.172 166.771 C 129.951 169.954 134.719 169.881 137.535 166.662 C 137.76 166.442 137.873 165.893 138.286 166.149 C 138.774 166.442 138.436 166.844 138.211 167.174 C 136.671 169.076 134.607 169.881 132.316 169.918 Z" fill="white"/>
    <path d="M 126.646 160.844 C 126.721 160.624 126.721 160.405 126.834 160.149 C 127.209 159.344 127.735 158.722 128.674 158.576 C 128.862 158.539 129.161 158.649 129.199 158.722 C 129.387 159.563 128.749 160.076 128.336 160.698 C 128.185 160.917 127.961 161.173 127.735 161.356 C 127.51 161.576 127.247 161.905 126.834 161.686 C 126.533 161.503 126.571 161.173 126.646 160.844 Z" fill="white"/>
    <path d="M 137.948 160.881 C 137.91 161.32 138.023 161.649 137.685 161.832 C 137.348 161.978 137.122 161.759 136.897 161.539 C 136.596 161.21 136.221 160.917 135.996 160.515 C 135.657 159.966 134.794 159.271 135.544 158.758 C 136.183 158.356 136.934 159.088 137.385 159.673 C 137.685 160.112 137.798 160.588 137.948 160.881 Z" fill="white"/>
  </g>
  <g transform="matrix(1.026227, 0, 0, 1, 90.547967, 101.622926)" style="" bx:origin="-0.294451 -0.976752">
    <path fill="#fff" d="M64-105c28-1 54 25 53 53 1 27-25 53-53 52-27 1-52-25-51-52-1-28 23-54 51-53" transform="matrix(0.0405893010272702, 0.00023873927198969093, -0.00023873927198969093, 0.0405893010272702, 0, 0)"/>
    <path fill="#fff" d="M356-63C316-31 272 0 210 0 93 0 17-86 17-196v-392c-1-26 22-52 49-51 28-1 50 25 50 51v385c4 56 38 93 94 93s94-37 94-93v-385c0-27 22-52 51-51 27-1 51 25 50 51v385c4 55 36 90 92 93 51 2 94-42 94-93v-385c-1-26 24-52 51-51 26-1 51 25 51 51v393C682-81 614 0 497 0c-60 0-105-28-141-63" transform="matrix(0.04059000313282013, 0, 0, 0.04059000313282013, 5.2769999504089355, 0)"/>
    <path fill="#fff" d="M207-639c117 0 193 76 193 195v394c1 27-23 51-50 50-81-1-42-122-51-196H117C108-121 146-1 65 0 38 1 15-24 16-50v-396c8-115 75-193 191-193zm0 102c-49-2-90 42-90 91v146h182v-146c-3-55-37-88-92-91" transform="matrix(0.04059000313282013, 0, 0, 0.04059000313282013, 34.095001220703125, 0)"/>
    <path fill="#fff" d="M338-107c26-1 50 24 49 50 1 28-22 53-49 52H70C41-5 18-29 18-57v-536c-1-28 24-51 52-50 26-1 50 23 50 50v486h218" transform="matrix(0.04059000313282013, 0, 0, 0.04059000313282013, 51.02000045776367, 0)"/>
    <path fill="#fff" d="M338-107c26-1 50 24 49 50 1 28-22 53-49 52H70C41-5 18-29 18-57v-536c-1-28 24-51 52-50 26-1 50 23 50 50v486h218" transform="matrix(0.04059000313282013, 0, 0, 0.04059000313282013, 66.80999755859375, 0)"/>
    <path fill="#fff" d="M351-101c27-1 52 24 51 50 1 28-23 52-51 51H68C41 1 18-23 18-51v-537c0-26 22-51 50-51h283c27-1 52 25 51 51 1 28-23 52-51 51H117v146h163c26-1 51 24 50 51 1 27-24 51-50 50H117v189h234" transform="matrix(0.04059000313282013, 0, 0, 0.04059000313282013, 82.5999984741211, 0)"/>
    <path fill="#fff" d="M398-639c27-1 52 25 51 51 0 74-102 46-171 51v486c1 29-21 52-50 51-29 1-51-22-50-51v-486c-70-5-171 23-171-51-1-26 24-51 50-51h341" transform="matrix(0.04059000313282013, 0, 0, 0.04059000313282013, 99.56600189208984, 0)"/>
    <path fill="#fff" d="M198-537c-47-1-83 39-83 86 2 42 37 84 83 81 156-11 256 52 256 186C454-73 381 0 271 0H81C51 1 29-21 30-51c-1-27 23-50 51-50h190c49-4 84-34 84-83 0-77-69-85-157-85-109 0-184-72-184-184 0-109 74-186 184-186h190c28 0 48 26 50 53-1 27-22 50-50 49H198" transform="matrix(0.04059000313282013, 0, 0, 0.04059000313282013, 118.0739974975586, 0)"/>
  </g>
</svg>