<svg xmlns="http://www.w3.org/2000/svg" xmlns:lucid="lucid" width="400" height="415"><g lucid:page-tab-id="EGtsPBqWp.GP"><path d="M403.55 205.28c0 107.84-87.43 195.27-195.27 195.27C100.43 400.55 13 313.12 13 205.28 13 97.43 100.43 10 208.28 10c107.84 0 195.27 87.43 195.27 195.28z" stroke="#ccc" stroke-width="2" fill="#fff"/><path d="M227.77 97.7c-56.23-10.25-107.8 24.8-117.54 80.67-3.45 19.38-1.82 39.33-1.82 59.28-.4 43.03 0 86.07 0 129.4 0 7.97 2.24 13.67 11.58 13.95 9.54 0 11.97-5.98 11.97-13.68 0-2-.2-4.56-.2-6.55v-94.34c1.22-.85 2.23-1.42 3.45-2 2.03 2.57 3.25 5.42 5.28 7.42 29.84 28.78 64.96 35.05 103.12 22.23 37.36-12.54 58.47-39.9 65.57-78.66 10.76-55-25.57-106.88-81.4-117.7zM208.9 278.13c-46.1-1.14-78.16-35.06-77.15-81.8.6-45.03 34.7-78.94 78.36-78.1 44.26.87 77.96 36.2 77.35 81.52-.6 44.46-35.73 79.52-78.56 78.38z" stroke="#000" stroke-opacity="0" stroke-width="1.46" fill="#51b148"/><path d="M211.12 250.76c-20.3-.3-37.14-7.4-49.93-23.37-2.25-2.86-6.1-7.14-1.84-10 3.86-2.84 5.07 2.86 7.3 5.14 24.16 28.5 65.37 27.93 89.53-.85 2.02-2 3.03-6.85 6.5-4.57 4.25 2.56 1.4 6.27-.62 9.12-13.2 16.8-31.06 24.22-50.96 24.5z" stroke="#000" stroke-opacity="0" stroke-width="1.46" fill="#82c44c"/><path d="M259.84 170.1c-.4 4 .6 6.84-2.23 8.55-3.03 1.43-4.86-.57-6.9-2.56-2.63-2.86-5.88-5.7-7.7-9.13-3.05-4.85-10.36-11.12-3.86-15.68 5.48-3.7 11.97 2.84 15.83 8.26 2.64 3.7 3.66 7.98 4.87 10.54zM162.2 169.82c.6-2 .6-4 1.62-6.27 3.25-7.13 7.72-12.54 15.84-13.97 1.62-.28 4.26.57 4.67 1.43 1.62 7.42-3.86 11.98-7.5 17.68-1.23 1.7-3.26 4-5.3 5.7-1.82 2-4.05 4.84-7.7 2.85-2.64-1.43-2.24-4.56-1.63-7.4z" stroke="#000" stroke-opacity="0" stroke-width="1.46" fill="#82c44b"/></g></svg>